<svg width="367" height="75" viewBox="0 0 367 75" fill="none" xmlns="http://www.w3.org/2000/svg">
<path d="M24.1509 68L64 10H40L0 68H24.1509Z" fill="#FFCE1F"/>
<path d="M10.1735 68V61.458L40.5282 18.8076H10V10H53.8265V16.542L23.5007 59.1924H54V68H10.1735Z" fill="#3A395E"/>
<path d="M81.2131 37V33.8828L95.3821 13.5604H81.1321V9.36364H101.589V12.4808L87.4339 32.8033H101.67V37H81.2131ZM112.263 37.4183C110.95 37.4183 109.767 37.1844 108.714 36.7166C107.671 36.2398 106.843 35.5381 106.232 34.6115C105.629 33.6849 105.327 32.5424 105.327 31.1839C105.327 30.0144 105.543 29.0473 105.975 28.2827C106.407 27.518 106.996 26.9062 107.743 26.4474C108.49 25.9886 109.331 25.6423 110.266 25.4084C111.211 25.1655 112.187 24.9901 113.195 24.8821C114.409 24.7562 115.394 24.6437 116.15 24.5447C116.906 24.4368 117.454 24.2749 117.796 24.0589C118.147 23.834 118.322 23.4877 118.322 23.0199V22.9389C118.322 21.9223 118.021 21.1352 117.418 20.5774C116.816 20.0196 115.947 19.7408 114.814 19.7408C113.617 19.7408 112.668 20.0017 111.967 20.5234C111.274 21.0452 110.806 21.6615 110.563 22.3722L106.002 21.7244C106.362 20.465 106.956 19.4124 107.783 18.5668C108.611 17.7121 109.623 17.0734 110.82 16.6506C112.016 16.2188 113.339 16.0028 114.787 16.0028C115.786 16.0028 116.78 16.1198 117.769 16.3537C118.759 16.5876 119.663 16.9744 120.482 17.5142C121.3 18.045 121.957 18.7692 122.452 19.6868C122.955 20.6044 123.207 21.7514 123.207 23.1278V37H118.511V34.1527H118.349C118.053 34.7285 117.634 35.2682 117.094 35.772C116.564 36.2668 115.893 36.6671 115.084 36.973C114.283 37.2699 113.343 37.4183 112.263 37.4183ZM113.532 33.8288C114.513 33.8288 115.363 33.6354 116.082 33.2486C116.802 32.8527 117.355 32.331 117.742 31.6832C118.138 31.0355 118.336 30.3293 118.336 29.5646V27.1222C118.183 27.2481 117.922 27.3651 117.553 27.473C117.193 27.581 116.789 27.6754 116.339 27.7564C115.889 27.8374 115.444 27.9093 115.003 27.9723C114.562 28.0353 114.18 28.0893 113.856 28.1342C113.127 28.2332 112.475 28.3951 111.899 28.62C111.323 28.8449 110.869 29.1598 110.536 29.5646C110.203 29.9605 110.037 30.4732 110.037 31.103C110.037 32.0026 110.365 32.6818 111.022 33.1406C111.679 33.5994 112.515 33.8288 113.532 33.8288ZM132.572 30.4957L132.559 24.5987H133.342L140.79 16.2727H146.499L137.336 26.4744H136.324L132.572 30.4957ZM128.119 37V9.36364H133.004V37H128.119ZM141.128 37L134.381 27.5675L137.673 24.1264L146.971 37H141.128ZM155.719 37.4183C154.405 37.4183 153.222 37.1844 152.17 36.7166C151.126 36.2398 150.298 35.5381 149.687 34.6115C149.084 33.6849 148.782 32.5424 148.782 31.1839C148.782 30.0144 148.998 29.0473 149.43 28.2827C149.862 27.518 150.451 26.9062 151.198 26.4474C151.945 25.9886 152.786 25.6423 153.721 25.4084C154.666 25.1655 155.642 24.9901 156.65 24.8821C157.864 24.7562 158.849 24.6437 159.605 24.5447C160.361 24.4368 160.909 24.2749 161.251 24.0589C161.602 23.834 161.778 23.4877 161.778 23.0199V22.9389C161.778 21.9223 161.476 21.1352 160.873 20.5774C160.271 20.0196 159.403 19.7408 158.269 19.7408C157.073 19.7408 156.123 20.0017 155.422 20.5234C154.729 21.0452 154.261 21.6615 154.018 22.3722L149.457 21.7244C149.817 20.465 150.411 19.4124 151.238 18.5668C152.066 17.7121 153.078 17.0734 154.275 16.6506C155.471 16.2188 156.794 16.0028 158.242 16.0028C159.241 16.0028 160.235 16.1198 161.224 16.3537C162.214 16.5876 163.118 16.9744 163.937 17.5142C164.755 18.045 165.412 18.7692 165.907 19.6868C166.411 20.6044 166.662 21.7514 166.662 23.1278V37H161.966V34.1527H161.805C161.508 34.7285 161.089 35.2682 160.55 35.772C160.019 36.2668 159.349 36.6671 158.539 36.973C157.738 37.2699 156.798 37.4183 155.719 37.4183ZM156.987 33.8288C157.968 33.8288 158.818 33.6354 159.537 33.2486C160.257 32.8527 160.81 32.331 161.197 31.6832C161.593 31.0355 161.791 30.3293 161.791 29.5646V27.1222C161.638 27.2481 161.377 27.3651 161.008 27.473C160.648 27.581 160.244 27.6754 159.794 27.7564C159.344 27.8374 158.899 27.9093 158.458 27.9723C158.017 28.0353 157.635 28.0893 157.311 28.1342C156.582 28.2332 155.93 28.3951 155.354 28.62C154.778 28.8449 154.324 29.1598 153.991 29.5646C153.658 29.9605 153.492 30.4732 153.492 31.103C153.492 32.0026 153.82 32.6818 154.477 33.1406C155.134 33.5994 155.97 33.8288 156.987 33.8288ZM171.574 37V16.2727H176.311V19.7273H176.527C176.905 18.5308 177.552 17.6087 178.47 16.9609C179.397 16.3042 180.454 15.9759 181.641 15.9759C181.911 15.9759 182.212 15.9893 182.545 16.0163C182.887 16.0343 183.171 16.0658 183.395 16.1108V20.6044C183.189 20.5324 182.86 20.4695 182.41 20.4155C181.97 20.3525 181.542 20.321 181.128 20.321C180.238 20.321 179.437 20.5144 178.726 20.9013C178.025 21.2791 177.471 21.8054 177.067 22.4801C176.662 23.1548 176.459 23.933 176.459 24.8146V37H171.574ZM190.308 44.7727C189.642 44.7727 189.026 44.7188 188.459 44.6108C187.901 44.5118 187.456 44.3949 187.123 44.2599L188.257 40.4545C188.967 40.6615 189.602 40.7604 190.159 40.7514C190.717 40.7424 191.208 40.567 191.63 40.2251C192.062 39.8923 192.426 39.3345 192.723 38.5518L193.142 37.4318L185.625 16.2727H190.807L195.584 31.9261H195.8L200.591 16.2727H205.786L197.487 39.5099C197.1 40.6075 196.587 41.5476 195.949 42.3303C195.31 43.1219 194.527 43.7247 193.6 44.1385C192.683 44.5613 191.585 44.7727 190.308 44.7727ZM214.537 37.4183C213.223 37.4183 212.04 37.1844 210.988 36.7166C209.944 36.2398 209.117 35.5381 208.505 34.6115C207.902 33.6849 207.601 32.5424 207.601 31.1839C207.601 30.0144 207.817 29.0473 208.249 28.2827C208.68 27.518 209.27 26.9062 210.016 26.4474C210.763 25.9886 211.604 25.6423 212.54 25.4084C213.484 25.1655 214.46 24.9901 215.468 24.8821C216.683 24.7562 217.668 24.6437 218.423 24.5447C219.179 24.4368 219.728 24.2749 220.07 24.0589C220.42 23.834 220.596 23.4877 220.596 23.0199V22.9389C220.596 21.9223 220.295 21.1352 219.692 20.5774C219.089 20.0196 218.221 19.7408 217.087 19.7408C215.891 19.7408 214.942 20.0017 214.24 20.5234C213.547 21.0452 213.08 21.6615 212.837 22.3722L208.276 21.7244C208.635 20.465 209.229 19.4124 210.057 18.5668C210.884 17.7121 211.897 17.0734 213.093 16.6506C214.29 16.2188 215.612 16.0028 217.06 16.0028C218.059 16.0028 219.053 16.1198 220.043 16.3537C221.032 16.5876 221.936 16.9744 222.755 17.5142C223.574 18.045 224.23 18.7692 224.725 19.6868C225.229 20.6044 225.481 21.7514 225.481 23.1278V37H220.785V34.1527H220.623C220.326 34.7285 219.908 35.2682 219.368 35.772C218.837 36.2668 218.167 36.6671 217.357 36.973C216.557 37.2699 215.616 37.4183 214.537 37.4183ZM215.805 33.8288C216.786 33.8288 217.636 33.6354 218.356 33.2486C219.076 32.8527 219.629 32.331 220.016 31.6832C220.411 31.0355 220.609 30.3293 220.609 29.5646V27.1222C220.456 27.2481 220.196 27.3651 219.827 27.473C219.467 27.581 219.062 27.6754 218.612 27.7564C218.162 27.8374 217.717 27.9093 217.276 27.9723C216.835 28.0353 216.453 28.0893 216.129 28.1342C215.401 28.2332 214.748 28.3951 214.173 28.62C213.597 28.8449 213.143 29.1598 212.81 29.5646C212.477 29.9605 212.31 30.4732 212.31 31.103C212.31 32.0026 212.639 32.6818 213.295 33.1406C213.952 33.5994 214.789 33.8288 215.805 33.8288ZM258.549 18.1889C258.324 17.4602 258.013 16.808 257.618 16.2322C257.231 15.6475 256.763 15.1482 256.214 14.7344C255.674 14.3205 255.054 14.0102 254.352 13.8033C253.65 13.5874 252.886 13.4794 252.058 13.4794C250.574 13.4794 249.251 13.8527 248.091 14.5994C246.93 15.3461 246.017 16.4437 245.351 17.892C244.694 19.3314 244.366 21.0857 244.366 23.1548C244.366 25.242 244.694 27.0097 245.351 28.4581C246.008 29.9065 246.921 31.0085 248.091 31.7642C249.26 32.5109 250.618 32.8842 252.166 32.8842C253.569 32.8842 254.784 32.6143 255.809 32.0746C256.844 31.5348 257.64 30.7701 258.198 29.7805C258.756 28.782 259.034 27.6125 259.034 26.272L260.168 26.4474H252.665V22.5341H263.879V25.8537C263.879 28.2197 263.375 30.2663 262.368 31.9936C261.36 33.7209 259.975 35.0523 258.211 35.9879C256.448 36.9145 254.424 37.3778 252.139 37.3778C249.593 37.3778 247.357 36.8066 245.432 35.6641C243.516 34.5125 242.018 32.8797 240.939 30.7656C239.868 28.6425 239.333 26.1236 239.333 23.2088C239.333 20.9777 239.648 18.9851 240.277 17.2308C240.916 15.4766 241.807 13.9877 242.949 12.7642C244.092 11.5317 245.432 10.5961 246.971 9.95739C248.509 9.30966 250.182 8.98579 251.99 8.98579C253.52 8.98579 254.946 9.2107 256.268 9.66051C257.591 10.1013 258.765 10.7311 259.79 11.5497C260.825 12.3684 261.675 13.34 262.341 14.4645C263.006 15.589 263.443 16.8305 263.65 18.1889H258.549ZM273.389 24.8551V37H268.504V9.36364H273.281V19.7947H273.524C274.01 18.6252 274.761 17.7031 275.778 17.0284C276.803 16.3447 278.108 16.0028 279.691 16.0028C281.13 16.0028 282.385 16.3042 283.456 16.907C284.526 17.5097 285.354 18.3913 285.939 19.5518C286.532 20.7124 286.829 22.1293 286.829 23.8026V37H281.944V24.5582C281.944 23.1638 281.585 22.0798 280.865 21.3061C280.154 20.5234 279.156 20.1321 277.869 20.1321C277.006 20.1321 276.232 20.321 275.548 20.6989C274.873 21.0677 274.343 21.603 273.956 22.3047C273.578 23.0064 273.389 23.8565 273.389 24.8551ZM297.773 37.4183C296.46 37.4183 295.277 37.1844 294.224 36.7166C293.181 36.2398 292.353 35.5381 291.741 34.6115C291.139 33.6849 290.837 32.5424 290.837 31.1839C290.837 30.0144 291.053 29.0473 291.485 28.2827C291.917 27.518 292.506 26.9062 293.253 26.4474C293.999 25.9886 294.84 25.6423 295.776 25.4084C296.721 25.1655 297.697 24.9901 298.704 24.8821C299.919 24.7562 300.904 24.6437 301.66 24.5447C302.415 24.4368 302.964 24.2749 303.306 24.0589C303.657 23.834 303.832 23.4877 303.832 23.0199V22.9389C303.832 21.9223 303.531 21.1352 302.928 20.5774C302.325 20.0196 301.457 19.7408 300.324 19.7408C299.127 19.7408 298.178 20.0017 297.476 20.5234C296.784 21.0452 296.316 21.6615 296.073 22.3722L291.512 21.7244C291.872 20.465 292.465 19.4124 293.293 18.5668C294.121 17.7121 295.133 17.0734 296.329 16.6506C297.526 16.2188 298.848 16.0028 300.297 16.0028C301.295 16.0028 302.289 16.1198 303.279 16.3537C304.269 16.5876 305.173 16.9744 305.991 17.5142C306.81 18.045 307.467 18.7692 307.961 19.6868C308.465 20.6044 308.717 21.7514 308.717 23.1278V37H304.021V34.1527H303.859C303.562 34.7285 303.144 35.2682 302.604 35.772C302.073 36.2668 301.403 36.6671 300.594 36.973C299.793 37.2699 298.853 37.4183 297.773 37.4183ZM299.042 33.8288C300.022 33.8288 300.872 33.6354 301.592 33.2486C302.312 32.8527 302.865 32.331 303.252 31.6832C303.648 31.0355 303.846 30.3293 303.846 29.5646V27.1222C303.693 27.2481 303.432 27.3651 303.063 27.473C302.703 27.581 302.298 27.6754 301.849 27.7564C301.399 27.8374 300.953 27.9093 300.513 27.9723C300.072 28.0353 299.689 28.0893 299.366 28.1342C298.637 28.2332 297.985 28.3951 297.409 28.62C296.833 28.8449 296.379 29.1598 296.046 29.5646C295.713 29.9605 295.547 30.4732 295.547 31.103C295.547 32.0026 295.875 32.6818 296.532 33.1406C297.189 33.5994 298.025 33.8288 299.042 33.8288ZM318.514 24.8551V37H313.629V16.2727H318.298V19.7947H318.541C319.018 18.6342 319.778 17.7121 320.822 17.0284C321.874 16.3447 323.174 16.0028 324.721 16.0028C326.152 16.0028 327.398 16.3087 328.459 16.9205C329.53 17.5322 330.358 18.4183 330.942 19.5788C331.536 20.7393 331.828 22.1473 331.819 23.8026V37H326.934V24.5582C326.934 23.1728 326.575 22.0888 325.855 21.3061C325.144 20.5234 324.159 20.1321 322.9 20.1321C322.045 20.1321 321.285 20.321 320.619 20.6989C319.962 21.0677 319.445 21.603 319.067 22.3047C318.698 23.0064 318.514 23.8565 318.514 24.8551ZM342.75 37.4183C341.436 37.4183 340.253 37.1844 339.201 36.7166C338.157 36.2398 337.33 35.5381 336.718 34.6115C336.115 33.6849 335.814 32.5424 335.814 31.1839C335.814 30.0144 336.03 29.0473 336.461 28.2827C336.893 27.518 337.483 26.9062 338.229 26.4474C338.976 25.9886 339.817 25.6423 340.753 25.4084C341.697 25.1655 342.673 24.9901 343.681 24.8821C344.895 24.7562 345.881 24.6437 346.636 24.5447C347.392 24.4368 347.941 24.2749 348.282 24.0589C348.633 23.834 348.809 23.4877 348.809 23.0199V22.9389C348.809 21.9223 348.507 21.1352 347.905 20.5774C347.302 20.0196 346.434 19.7408 345.3 19.7408C344.104 19.7408 343.155 20.0017 342.453 20.5234C341.76 21.0452 341.292 21.6615 341.05 22.3722L336.488 21.7244C336.848 20.465 337.442 19.4124 338.27 18.5668C339.097 17.7121 340.109 17.0734 341.306 16.6506C342.502 16.2188 343.825 16.0028 345.273 16.0028C346.272 16.0028 347.266 16.1198 348.256 16.3537C349.245 16.5876 350.149 16.9744 350.968 17.5142C351.787 18.045 352.443 18.7692 352.938 19.6868C353.442 20.6044 353.694 21.7514 353.694 23.1278V37H348.998V34.1527H348.836C348.539 34.7285 348.121 35.2682 347.581 35.772C347.05 36.2668 346.38 36.6671 345.57 36.973C344.769 37.2699 343.829 37.4183 342.75 37.4183ZM344.018 33.8288C344.999 33.8288 345.849 33.6354 346.569 33.2486C347.288 32.8527 347.842 32.331 348.229 31.6832C348.624 31.0355 348.822 30.3293 348.822 29.5646V27.1222C348.669 27.2481 348.408 27.3651 348.04 27.473C347.68 27.581 347.275 27.6754 346.825 27.7564C346.375 27.8374 345.93 27.9093 345.489 27.9723C345.048 28.0353 344.666 28.0893 344.342 28.1342C343.613 28.2332 342.961 28.3951 342.385 28.62C341.81 28.8449 341.355 29.1598 341.023 29.5646C340.69 29.9605 340.523 30.4732 340.523 31.103C340.523 32.0026 340.852 32.6818 341.508 33.1406C342.165 33.5994 343.002 33.8288 344.018 33.8288ZM358.606 37V16.2727H363.491V37H358.606ZM361.062 13.331C360.288 13.331 359.622 13.0746 359.064 12.5618C358.507 12.04 358.228 11.4148 358.228 10.6861C358.228 9.94839 358.507 9.32315 359.064 8.81037C359.622 8.28859 360.288 8.0277 361.062 8.0277C361.844 8.0277 362.51 8.28859 363.059 8.81037C363.617 9.32315 363.895 9.94839 363.895 10.6861C363.895 11.4148 363.617 12.04 363.059 12.5618C362.51 13.0746 361.844 13.331 361.062 13.331Z" fill="#3A395E"/>
<path d="M92.6023 52.7273C92.483 51.7197 91.9991 50.9375 91.1506 50.3807C90.3021 49.8239 89.2614 49.5455 88.0284 49.5455C87.1269 49.5455 86.3381 49.6913 85.6619 49.983C84.9924 50.2746 84.4688 50.6757 84.0909 51.1861C83.7197 51.6965 83.5341 52.2765 83.5341 52.9261C83.5341 53.4697 83.6634 53.937 83.9219 54.3281C84.187 54.7126 84.5251 55.0341 84.9361 55.2926C85.3471 55.5445 85.7779 55.7533 86.2287 55.919C86.6795 56.0781 87.0938 56.2074 87.4716 56.3068L89.5398 56.8636C90.0701 57.0028 90.66 57.1951 91.3097 57.4403C91.9659 57.6856 92.5923 58.0204 93.1889 58.4446C93.7921 58.8622 94.2893 59.3991 94.6804 60.0554C95.0715 60.7116 95.267 61.517 95.267 62.4716C95.267 63.572 94.9787 64.5663 94.402 65.4545C93.8319 66.3428 92.9967 67.0488 91.8963 67.5724C90.8026 68.0961 89.4735 68.358 87.9091 68.358C86.4508 68.358 85.188 68.1226 84.1207 67.652C83.0601 67.1813 82.2249 66.5251 81.6151 65.6832C81.0118 64.8414 80.6705 63.8636 80.5909 62.75H83.1364C83.2027 63.5189 83.4612 64.1553 83.9119 64.6591C84.3693 65.1562 84.946 65.5275 85.642 65.7727C86.3447 66.0114 87.1004 66.1307 87.9091 66.1307C88.8504 66.1307 89.6955 65.9782 90.4446 65.6733C91.1937 65.3617 91.7869 64.9309 92.2244 64.3807C92.6619 63.8239 92.8807 63.1742 92.8807 62.4318C92.8807 61.7557 92.6918 61.2055 92.3139 60.7812C91.9361 60.357 91.4389 60.0123 90.8224 59.7472C90.206 59.482 89.5398 59.25 88.8239 59.0511L86.3182 58.3352C84.7273 57.8778 83.4678 57.2249 82.5398 56.3764C81.6117 55.5279 81.1477 54.4176 81.1477 53.0455C81.1477 51.9053 81.456 50.911 82.0724 50.0625C82.6955 49.2074 83.5308 48.5445 84.5781 48.0739C85.6321 47.5966 86.8087 47.358 88.108 47.358C89.4205 47.358 90.5871 47.5933 91.608 48.0639C92.6288 48.5279 93.4375 49.1643 94.0341 49.973C94.6373 50.7817 94.9555 51.6998 94.9886 52.7273H92.6023ZM105.208 68.3182C103.829 68.3182 102.619 67.9901 101.578 67.3338C100.544 66.6776 99.7357 65.7595 99.1523 64.5795C98.5756 63.3996 98.2873 62.0208 98.2873 60.4432C98.2873 58.8523 98.5756 57.4635 99.1523 56.277C99.7357 55.0904 100.544 54.169 101.578 53.5128C102.619 52.8565 103.829 52.5284 105.208 52.5284C106.587 52.5284 107.793 52.8565 108.827 53.5128C109.868 54.169 110.676 55.0904 111.253 56.277C111.837 57.4635 112.128 58.8523 112.128 60.4432C112.128 62.0208 111.837 63.3996 111.253 64.5795C110.676 65.7595 109.868 66.6776 108.827 67.3338C107.793 67.9901 106.587 68.3182 105.208 68.3182ZM105.208 66.2102C106.255 66.2102 107.117 65.9418 107.793 65.4048C108.469 64.8679 108.97 64.1619 109.294 63.2869C109.619 62.4119 109.782 61.464 109.782 60.4432C109.782 59.4223 109.619 58.4711 109.294 57.5895C108.97 56.7079 108.469 55.9953 107.793 55.4517C107.117 54.9081 106.255 54.6364 105.208 54.6364C104.16 54.6364 103.299 54.9081 102.623 55.4517C101.946 55.9953 101.446 56.7079 101.121 57.5895C100.796 58.4711 100.634 59.4223 100.634 60.4432C100.634 61.464 100.796 62.4119 101.121 63.2869C101.446 64.1619 101.946 64.8679 102.623 65.4048C103.299 65.9418 104.16 66.2102 105.208 66.2102ZM122.511 52.7273V54.7159H114.278V52.7273H122.511ZM116.744 68V50.6193C116.744 49.7443 116.95 49.0152 117.361 48.4318C117.772 47.8485 118.305 47.411 118.962 47.1193C119.618 46.8277 120.311 46.6818 121.04 46.6818C121.616 46.6818 122.087 46.7282 122.452 46.821C122.816 46.9138 123.088 47 123.267 47.0795L122.591 49.108C122.472 49.0682 122.306 49.0185 122.094 48.9588C121.888 48.8991 121.616 48.8693 121.278 48.8693C120.503 48.8693 119.943 49.0649 119.598 49.456C119.26 49.8471 119.091 50.4205 119.091 51.1761V68H116.744ZM132.442 52.7273V54.7159H124.527V52.7273H132.442ZM126.834 49.0682H129.181V63.625C129.181 64.2879 129.277 64.785 129.469 65.1165C129.668 65.4413 129.92 65.66 130.225 65.7727C130.536 65.8788 130.864 65.9318 131.209 65.9318C131.468 65.9318 131.68 65.9186 131.846 65.892C132.011 65.8589 132.144 65.8324 132.243 65.8125L132.721 67.9205C132.561 67.9801 132.339 68.0398 132.054 68.0994C131.769 68.1657 131.408 68.1989 130.971 68.1989C130.308 68.1989 129.658 68.0563 129.022 67.7713C128.392 67.4863 127.868 67.0521 127.451 66.4688C127.04 65.8854 126.834 65.1496 126.834 64.2614V49.0682ZM139.432 68L134.779 52.7273H137.245L140.546 64.4205H140.705L143.966 52.7273H146.472L149.694 64.3807H149.853L153.154 52.7273H155.62L150.966 68H148.659L145.319 56.267H145.08L141.739 68H139.432ZM163.216 68.358C162.248 68.358 161.37 68.1757 160.581 67.8111C159.792 67.4399 159.166 66.9062 158.702 66.2102C158.238 65.5076 158.006 64.6591 158.006 63.6648C158.006 62.7898 158.178 62.0805 158.523 61.5369C158.868 60.9867 159.328 60.5559 159.905 60.2443C160.482 59.9328 161.118 59.7008 161.814 59.5483C162.517 59.3892 163.223 59.2633 163.932 59.1705C164.86 59.0511 165.613 58.9616 166.189 58.902C166.773 58.8357 167.197 58.7263 167.462 58.5739C167.734 58.4214 167.87 58.1562 167.87 57.7784V57.6989C167.87 56.7178 167.601 55.9555 167.064 55.4119C166.534 54.8684 165.729 54.5966 164.648 54.5966C163.528 54.5966 162.65 54.8419 162.013 55.3324C161.377 55.8229 160.929 56.3466 160.671 56.9034L158.444 56.108C158.841 55.1799 159.372 54.4574 160.034 53.9403C160.704 53.4167 161.433 53.0521 162.222 52.8466C163.017 52.6345 163.8 52.5284 164.569 52.5284C165.059 52.5284 165.623 52.5881 166.259 52.7074C166.902 52.8201 167.522 53.0554 168.118 53.4134C168.721 53.7713 169.222 54.3116 169.62 55.0341C170.017 55.7566 170.216 56.7244 170.216 57.9375V68H167.87V65.9318H167.75C167.591 66.2633 167.326 66.6179 166.955 66.9957C166.584 67.3736 166.09 67.6951 165.473 67.9602C164.857 68.2254 164.105 68.358 163.216 68.358ZM163.574 66.25C164.502 66.25 165.284 66.0677 165.921 65.7031C166.564 65.3385 167.048 64.8679 167.373 64.2912C167.704 63.7145 167.87 63.108 167.87 62.4716V60.3239C167.77 60.4432 167.551 60.5526 167.213 60.652C166.882 60.7448 166.498 60.8277 166.06 60.9006C165.629 60.9669 165.208 61.0265 164.797 61.0795C164.393 61.1259 164.065 61.1657 163.813 61.1989C163.203 61.2784 162.633 61.4077 162.103 61.5866C161.579 61.759 161.155 62.0208 160.83 62.3722C160.512 62.7169 160.353 63.1875 160.353 63.7841C160.353 64.5994 160.654 65.2159 161.257 65.6335C161.867 66.0445 162.64 66.25 163.574 66.25ZM174.499 68V52.7273H176.766V55.0341H176.925C177.204 54.2784 177.708 53.6652 178.437 53.1946C179.166 52.724 179.988 52.4886 180.903 52.4886C181.075 52.4886 181.29 52.4919 181.549 52.4986C181.808 52.5052 182.003 52.5152 182.136 52.5284V54.9148C182.056 54.8949 181.874 54.8651 181.589 54.8253C181.31 54.7789 181.015 54.7557 180.704 54.7557C179.961 54.7557 179.299 54.9115 178.715 55.223C178.138 55.5279 177.681 55.9522 177.343 56.4957C177.012 57.0327 176.846 57.6458 176.846 58.3352V68H174.499ZM190.856 68.3182C189.384 68.3182 188.115 67.9934 187.048 67.3438C185.987 66.6875 185.168 65.7727 184.592 64.5994C184.022 63.4195 183.737 62.0473 183.737 60.483C183.737 58.9186 184.022 57.5398 184.592 56.3466C185.168 55.1468 185.97 54.2121 186.998 53.5426C188.032 52.8665 189.238 52.5284 190.617 52.5284C191.413 52.5284 192.198 52.661 192.974 52.9261C193.749 53.1913 194.455 53.6222 195.092 54.2188C195.728 54.8087 196.235 55.5909 196.613 56.5653C196.991 57.5398 197.18 58.7396 197.18 60.1648V61.1591H185.407V59.1307H194.793C194.793 58.2689 194.621 57.5 194.276 56.8239C193.938 56.1477 193.454 55.6141 192.825 55.223C192.201 54.8319 191.466 54.6364 190.617 54.6364C189.683 54.6364 188.874 54.8684 188.191 55.3324C187.515 55.7898 186.995 56.3864 186.63 57.1222C186.265 57.858 186.083 58.6468 186.083 59.4886V60.8409C186.083 61.9943 186.282 62.9721 186.68 63.7741C187.084 64.5696 187.644 65.1761 188.36 65.5938C189.076 66.0047 189.908 66.2102 190.856 66.2102C191.472 66.2102 192.029 66.1241 192.526 65.9517C193.03 65.7727 193.464 65.5076 193.829 65.1562C194.193 64.7983 194.475 64.3542 194.674 63.8239L196.941 64.4602C196.702 65.2292 196.301 65.9053 195.738 66.4886C195.174 67.0653 194.478 67.5161 193.65 67.8409C192.821 68.1591 191.89 68.3182 190.856 68.3182ZM208.942 68V47.6364H221.232V49.8239H211.408V56.7045H220.596V58.892H211.408V65.8125H221.391V68H208.942ZM227.705 58.8125V68H225.359V52.7273H227.626V55.1136H227.825C228.183 54.3381 228.726 53.715 229.455 53.2443C230.184 52.767 231.126 52.5284 232.279 52.5284C233.313 52.5284 234.218 52.7405 234.994 53.1648C235.769 53.5824 236.372 54.2188 236.803 55.0739C237.234 55.9223 237.45 56.9962 237.45 58.2955V68H235.103V58.4545C235.103 57.2547 234.791 56.3201 234.168 55.6506C233.545 54.9744 232.69 54.6364 231.603 54.6364C230.854 54.6364 230.184 54.7988 229.594 55.1236C229.011 55.4484 228.55 55.9223 228.212 56.5455C227.874 57.1686 227.705 57.9242 227.705 58.8125ZM247.902 74.0455C246.769 74.0455 245.794 73.8996 244.979 73.608C244.164 73.3229 243.484 72.9451 242.941 72.4744C242.404 72.0104 241.976 71.5133 241.658 70.983L243.527 69.6705C243.739 69.9489 244.008 70.267 244.333 70.625C244.658 70.9896 245.102 71.3045 245.665 71.5696C246.235 71.8414 246.981 71.9773 247.902 71.9773C249.135 71.9773 250.153 71.679 250.955 71.0824C251.757 70.4858 252.158 69.5511 252.158 68.2784V65.1761H251.959C251.787 65.4545 251.542 65.7992 251.223 66.2102C250.912 66.6146 250.461 66.9759 249.871 67.294C249.288 67.6056 248.499 67.7614 247.505 67.7614C246.272 67.7614 245.165 67.4697 244.184 66.8864C243.209 66.303 242.437 65.4545 241.867 64.3409C241.303 63.2273 241.022 61.875 241.022 60.2841C241.022 58.7197 241.297 57.3575 241.847 56.1974C242.397 55.0308 243.163 54.1293 244.144 53.4929C245.125 52.8499 246.258 52.5284 247.544 52.5284C248.539 52.5284 249.328 52.6941 249.911 53.0256C250.501 53.3504 250.952 53.7216 251.263 54.1392C251.581 54.5502 251.827 54.8883 251.999 55.1534H252.238V52.7273H254.505V68.4375C254.505 69.75 254.206 70.8172 253.61 71.6392C253.02 72.4678 252.224 73.0743 251.223 73.4588C250.229 73.8499 249.122 74.0455 247.902 74.0455ZM247.823 65.6534C248.764 65.6534 249.56 65.438 250.209 65.0071C250.859 64.5762 251.353 63.9564 251.691 63.1477C252.029 62.339 252.198 61.3712 252.198 60.2443C252.198 59.1439 252.032 58.1728 251.701 57.331C251.369 56.4891 250.879 55.8295 250.229 55.3523C249.579 54.875 248.777 54.6364 247.823 54.6364C246.828 54.6364 246 54.8883 245.337 55.392C244.681 55.8958 244.187 56.572 243.855 57.4205C243.531 58.2689 243.368 59.2102 243.368 60.2443C243.368 61.3049 243.534 62.2429 243.865 63.0582C244.203 63.867 244.701 64.5033 245.357 64.9673C246.02 65.4247 246.842 65.6534 247.823 65.6534ZM258.8 68V52.7273H261.147V68H258.8ZM259.993 50.1818C259.536 50.1818 259.141 50.026 258.81 49.7145C258.485 49.4029 258.323 49.0284 258.323 48.5909C258.323 48.1534 258.485 47.7789 258.81 47.4673C259.141 47.1558 259.536 47 259.993 47C260.451 47 260.842 47.1558 261.167 47.4673C261.498 47.7789 261.664 48.1534 261.664 48.5909C261.664 49.0284 261.498 49.4029 261.167 49.7145C260.842 50.026 260.451 50.1818 259.993 50.1818ZM267.791 58.8125V68H265.445V52.7273H267.712V55.1136H267.911C268.268 54.3381 268.812 53.715 269.541 53.2443C270.27 52.767 271.212 52.5284 272.365 52.5284C273.399 52.5284 274.304 52.7405 275.08 53.1648C275.855 53.5824 276.458 54.2188 276.889 55.0739C277.32 55.9223 277.536 56.9962 277.536 58.2955V68H275.189V58.4545C275.189 57.2547 274.877 56.3201 274.254 55.6506C273.631 54.9744 272.776 54.6364 271.689 54.6364C270.94 54.6364 270.27 54.7988 269.68 55.1236C269.097 55.4484 268.636 55.9223 268.298 56.5455C267.96 57.1686 267.791 57.9242 267.791 58.8125ZM288.227 68.3182C286.755 68.3182 285.486 67.9934 284.419 67.3438C283.358 66.6875 282.539 65.7727 281.963 64.5994C281.393 63.4195 281.108 62.0473 281.108 60.483C281.108 58.9186 281.393 57.5398 281.963 56.3466C282.539 55.1468 283.342 54.2121 284.369 53.5426C285.403 52.8665 286.609 52.5284 287.988 52.5284C288.784 52.5284 289.569 52.661 290.345 52.9261C291.12 53.1913 291.826 53.6222 292.463 54.2188C293.099 54.8087 293.606 55.5909 293.984 56.5653C294.362 57.5398 294.551 58.7396 294.551 60.1648V61.1591H282.778V59.1307H292.164C292.164 58.2689 291.992 57.5 291.647 56.8239C291.309 56.1477 290.825 55.6141 290.196 55.223C289.573 54.8319 288.837 54.6364 287.988 54.6364C287.054 54.6364 286.245 54.8684 285.562 55.3324C284.886 55.7898 284.366 56.3864 284.001 57.1222C283.636 57.858 283.454 58.6468 283.454 59.4886V60.8409C283.454 61.9943 283.653 62.9721 284.051 63.7741C284.455 64.5696 285.015 65.1761 285.731 65.5938C286.447 66.0047 287.279 66.2102 288.227 66.2102C288.843 66.2102 289.4 66.1241 289.897 65.9517C290.401 65.7727 290.835 65.5076 291.2 65.1562C291.565 64.7983 291.846 64.3542 292.045 63.8239L294.312 64.4602C294.074 65.2292 293.672 65.9053 293.109 66.4886C292.546 67.0653 291.85 67.5161 291.021 67.8409C290.192 68.1591 289.261 68.3182 288.227 68.3182ZM304.524 68.3182C303.052 68.3182 301.783 67.9934 300.716 67.3438C299.655 66.6875 298.836 65.7727 298.26 64.5994C297.69 63.4195 297.404 62.0473 297.404 60.483C297.404 58.9186 297.69 57.5398 298.26 56.3466C298.836 55.1468 299.638 54.2121 300.666 53.5426C301.7 52.8665 302.906 52.5284 304.285 52.5284C305.081 52.5284 305.866 52.661 306.642 52.9261C307.417 53.1913 308.123 53.6222 308.76 54.2188C309.396 54.8087 309.903 55.5909 310.281 56.5653C310.659 57.5398 310.848 58.7396 310.848 60.1648V61.1591H299.075V59.1307H308.461C308.461 58.2689 308.289 57.5 307.944 56.8239C307.606 56.1477 307.122 55.6141 306.493 55.223C305.869 54.8319 305.134 54.6364 304.285 54.6364C303.35 54.6364 302.542 54.8684 301.859 55.3324C301.183 55.7898 300.663 56.3864 300.298 57.1222C299.933 57.858 299.751 58.6468 299.751 59.4886V60.8409C299.751 61.9943 299.95 62.9721 300.348 63.7741C300.752 64.5696 301.312 65.1761 302.028 65.5938C302.744 66.0047 303.576 66.2102 304.524 66.2102C305.14 66.2102 305.697 66.1241 306.194 65.9517C306.698 65.7727 307.132 65.5076 307.497 65.1562C307.861 64.7983 308.143 64.3542 308.342 63.8239L310.609 64.4602C310.37 65.2292 309.969 65.9053 309.406 66.4886C308.842 67.0653 308.146 67.5161 307.318 67.8409C306.489 68.1591 305.558 68.3182 304.524 68.3182ZM314.417 68V52.7273H316.684V55.0341H316.843C317.122 54.2784 317.626 53.6652 318.355 53.1946C319.084 52.724 319.906 52.4886 320.821 52.4886C320.993 52.4886 321.208 52.4919 321.467 52.4986C321.725 52.5052 321.921 52.5152 322.054 52.5284V54.9148C321.974 54.8949 321.792 54.8651 321.507 54.8253C321.228 54.7789 320.933 54.7557 320.622 54.7557C319.879 54.7557 319.217 54.9115 318.633 55.223C318.056 55.5279 317.599 55.9522 317.261 56.4957C316.93 57.0327 316.764 57.6458 316.764 58.3352V68H314.417Z" fill="black" fill-opacity="0.3"/>
</svg>
