<svg width="32" height="24" viewBox="0 0 32 24" fill="none" xmlns="http://www.w3.org/2000/svg">
<g clip-path="url(#clip0_52_23)">
<path d="M7.238 23.8819V11.5822L3.42349 8.09248L0.00292969 6.15594V21.7113C0.00292969 22.9123 0.975987 23.8819 2.1735 23.8819H7.238V23.8819Z" fill="#4285F4"/>
<path d="M24.6021 23.8819H29.6665C30.8677 23.8819 31.8371 22.9087 31.8371 21.7113V6.15607L27.9628 8.37414L24.6021 11.5822V23.8819V23.8819Z" fill="#34A853"/>
<path d="M7.23792 11.5822L6.71887 6.77633L7.23792 2.17667L15.92 8.68825L24.602 2.17667L25.1826 6.528L24.602 11.5822L15.92 18.0938L7.23792 11.5822Z" fill="#EA4335"/>
<path d="M24.6021 2.17666V11.5822L31.8371 6.15593V3.26188C31.8371 0.577733 28.7731 -0.952422 26.628 0.657318L24.6021 2.17666Z" fill="#FBBC04"/>
<path d="M0.00292969 6.15593L3.33047 8.65168L7.238 11.5822V2.17665L5.21205 0.657314C3.06324 -0.952551 0.00292969 0.577729 0.00292969 3.26175V6.1558V6.15593Z" fill="#C5221F"/>
</g>
<defs>
<clipPath id="clip0_52_23">
<rect width="31.84" height="24" fill="white"/>
</clipPath>
</defs>
</svg>
