<svg width="28" height="28" viewBox="0 0 28 28" fill="none" xmlns="http://www.w3.org/2000/svg">
<g clip-path="url(#clip0_52_8)">
<path d="M23.8572 23.8576H19.7085V17.3604C19.7085 15.8111 19.6808 13.8167 17.5507 13.8167C15.3899 13.8167 15.0593 15.5048 15.0593 17.2477V23.8572H10.9107V10.4964H14.8934V12.3223H14.9491C15.3477 11.6408 15.9237 11.0801 16.6157 10.7001C17.3077 10.32 18.0898 10.1347 18.8788 10.164C23.0837 10.164 23.8589 12.9299 23.8589 16.5281L23.8572 23.8576V23.8576ZM6.22944 8.67016C4.89977 8.67038 3.82166 7.5926 3.82144 6.26293C3.82122 4.93326 4.89889 3.85515 6.22857 3.85493C7.55824 3.8546 8.63635 4.93238 8.63657 6.26205C8.63668 6.90059 8.38314 7.51302 7.93172 7.96463C7.4803 8.41623 6.86798 8.67002 6.22944 8.67016M8.30385 23.8578H4.15077V10.4964H8.30374V23.8576L8.30385 23.8578ZM25.9255 0.00197683H2.06608C0.938425 -0.0107107 0.0136592 0.892617 -0.00012207 2.02027V25.9792C0.0132217 27.1074 0.937878 28.0116 2.06597 27.9998H25.9255C27.056 28.0138 27.9842 27.1096 27.9999 25.9792V2.01841C27.9838 0.888571 27.0554 -0.0146482 25.9255 0.000117453" fill="#0A66C2"/>
</g>
<defs>
<clipPath id="clip0_52_8">
<rect width="28" height="28" fill="white"/>
</clipPath>
</defs>
</svg>
